# xmcd
#
# Track frame offsets: 
#        150
#        18582
#        40810
#        64919
#        88289
#        107138
#        134897
#        153677
#        181673
#
# Disc length: 2648 seconds
#
# Revision: 0
# Processed by: cddbd v1.5.2PL0 Copyright (c) Steve Scherf et al.
# Submitted via: ExactAudioCopy v1.0b3
#
DISCID=800a5609
DTITLE=Robben Ford - A Day In Nashville
DYEAR=2014
DGENRE=Blues
TTITLE0=Green Grass, Rainwater
TTITLE1=Midnight Comes Too Soon
TTITLE2=Ain't Drinkin' Beer No More
TTITLE3=Top Down Blues
TTITLE4=Different People
TTITLE5=Cut You Loose
TTITLE6=Poor Kelly Blues
TTITLE7=Thump and Bump
TTITLE8=Just Another Country Road
EXTD=
EXTT0=
EXTT1=
EXTT2=
EXTT3=
EXTT4=
EXTT5=
EXTT6=
EXTT7=
EXTT8=
PLAYORDER=
